<svg xmlns="http://www.w3.org/2000/svg" viewBox="0 0 800 500" role="img" aria-labelledby="title desc">
  <title id="title">River forecasting paper thumbnail</title>
  <desc id="desc">Layered contour lines and a flowing river motif.</desc>
  <defs>
    <linearGradient id="bg" x1="0%" y1="0%" x2="100%" y2="100%">
      <stop offset="0%" stop-color="#29465b" />
      <stop offset="100%" stop-color="#d4a74d" />
    </linearGradient>
  </defs>
  <rect width="800" height="500" fill="url(#bg)" rx="40" />
  <g fill="none" stroke="rgba(255,255,255,0.22)" stroke-width="4">
    <path d="M80 120c100 20 130-30 240-12s136 66 230 52 137-67 170-72" />
    <path d="M60 180c112 34 168-10 264 16s138 78 252 64 114-52 164-36" />
    <path d="M74 250c88 22 148-22 246 0s168 92 284 80 104-62 142-54" />
    <path d="M88 322c110 18 126-42 222-20s182 98 298 82 102-44 116-36" />
  </g>
  <path d="M420 50c-86 90-120 158-104 206 18 54 84 78 56 170" fill="none" stroke="#f8fbfc" stroke-width="20" stroke-linecap="round" />
</svg>
